<?xml version="1.0" encoding="utf-8"?>
<!-- Generator: Adobe Illustrator 25.3.1, SVG Export Plug-In . SVG Version: 6.00 Build 0)  -->
<svg version="1.1" id="Livello_1" xmlns="http://www.w3.org/2000/svg" xmlns:xlink="http://www.w3.org/1999/xlink" x="0px" y="0px"
	 viewBox="0 0 1920 1080" style="enable-background:new 0 0 1920 1080;" xml:space="preserve">
<style type="text/css">
	.st0{fill:#2E9AD6;}
	.st1{fill:#006799;}
	.st2{fill:#FFFFFF;}
	.st3{fill:none;}
</style>
<g>
	<path class="st0" d="M180.55,553.85c-44.58,37.62-72.91,93.9-72.91,156.8c0,113.26,91.82,205.08,205.08,205.08
		S517.8,823.91,517.8,710.65c0-40.97-12.02-79.13-32.71-111.15c-33.45-0.74-66.65-9.63-116.84-25.91
		C287.72,547.3,245.41,539.82,180.55,553.85z"/>
	<circle class="st1" cx="312.72" cy="710.65" r="106.14"/>
	<circle class="st2" cx="366.92" cy="660.61" r="31.42"/>
	<path class="st3" d="M1751.27,298.19v-1.06c0-29.26-21.28-44.15-55.86-44.15h-67.56v89.37h68.09
		C1731.05,342.34,1751.27,325.32,1751.27,298.19z"/>
	<path class="st0" d="M178.13,477.96V163.61H74.4v344.37c13.4-3.47,27.71-7.66,42.97-12.65
		C139.92,487.99,160.18,482.21,178.13,477.96z"/>
	<path class="st0" d="M347.3,323.19L442,467.89h2.12l95.22-145.76v195.29c23.62-4.32,49.5-11.68,80.93-22.1
		c7.6-2.51,14.82-4.83,21.74-6.97V163.61H532.97l-88.84,144.16l-88.83-144.16H246.24v305.89c25.41,1.29,59.29,8.47,101.07,21.38
		V323.19z"/>
	<path class="st0" d="M809.09,478.86V323.19l94.69,144.69h2.12l95.22-145.76v199.74c30.42-1.04,61.78-7.84,102.67-20.41V163.61
		H994.75l-88.84,144.16l-88.83-144.16H708.02v308.51C741.91,466.98,771.01,469.23,809.09,478.86z"/>
	<path class="st0" d="M1367.06,495.32c42.45,13.88,74.82,22.34,104.9,25.4v-72.52h-200.02v-59.05h178.74v-81.39h-178.74v-56.39
		h197.36v-87.77H1169.8v317.54C1238.81,462.29,1275.71,465.67,1367.06,495.32z"/>
	<path class="st0" d="M1627.85,494.71V423.2h45.22l33.33,50.11c41.87-7.46,75.39-4.13,124.79,10l-52.79-77.13
		c46.28-19.68,76.6-57.45,76.6-114.37v-1.06c0-36.7-11.17-65.43-32.98-86.71c-25-25.53-64.36-40.43-121.28-40.43h-176.08v356.84
		c29.23-3.27,60.63-11.64,101.34-25.13C1626.62,495.12,1627.23,494.92,1627.85,494.71z M1627.85,252.97h67.56
		c34.58,0,55.86,14.89,55.86,44.15v1.06c0,27.13-20.22,44.15-55.32,44.15h-68.09V252.97z"/>
	<polygon class="st3" points="1540.13,655.23 1497.87,761.68 1581.85,761.68 	"/>
	<path class="st1" d="M701.01,550.23c-35.7,21.12-55.82,56.06-55.82,98.05v1.07c0,77.02,61.51,99.49,141.21,117.68
		c50.82,11.77,63.12,20.33,63.12,35.84v1.07c0,16.05-14.97,25.67-42.79,25.67c-43.33,0-84.51-15.51-121.42-44.93l-57.76,69
		c45.99,41.19,109.11,62.05,175.44,62.05c90.93,0,151.37-45.47,151.37-121.96v-1.07c0-70.07-53.49-97.89-139.61-116.61
		c-51.88-11.77-64.72-19.26-64.72-36.37v-1.07c0-13.38,12.3-24.07,37.44-24.07c33.17,0,70.61,12.84,104.84,36.91l42.39-59.87
		c-18.05-4.24-38.27-10.23-62.24-18.04C798.29,549.4,755.05,541.62,701.01,550.23z"/>
	<path class="st1" d="M1116.47,573.58c-47.69,15.44-80.04,24.2-111.79,25.67v310.05h303.82v-88.26h-201.12v-59.37h179.72v-81.84
		h-179.72v-56.7h198.44v-68.96C1239.78,539.49,1197.61,546.8,1116.47,573.58z"/>
	<path class="st1" d="M1463.47,597.15l-131.94,312.15h109.11l26.74-66.86h144.42l27.28,66.86h111.26l-140.78-333.05
		C1544.17,597.02,1507.2,603.49,1463.47,597.15z M1540.13,655.23l41.72,106.45h-83.98L1540.13,655.23z"/>
</g>
</svg>
